<svg id="SvgjsSvg1001" width="288" height="288" xmlns="http://www.w3.org/2000/svg" version="1.1" xmlns:xlink="http://www.w3.org/1999/xlink" xmlns:svgjs="http://svgjs.com/svgjs"><rect id="SvgjsRect1014" width="288" height="288" rx="26" ry="26" transform="matrix(0.61,0,0,0.61,56.16,56.16)" fill="#6a64f2"></rect><defs id="SvgjsDefs1002"></defs><g id="SvgjsG1008" transform="matrix(0.88,0,0,0.88,17.05520324707031,16.225471343994144)"><svg xmlns="http://www.w3.org/2000/svg" version="1.0" viewBox="0 0 300 224" width="288" height="288"><g transform="matrix(.1 0 0 -.1 0 224)"><path d="M1000 1810c-149-9-180-26-180-98 0-66 49-95 188-108 69-6 72-8 72-33 0-14 12-82 26-151 34-170 44-401 20-483l-17-58-28 20c-15 11-71 61-123 110-99 94-134 115-173 105-29-7-62-42-70-74-11-47 57-164 154-261 105-104 160-134 248-134 52 0 68 5 104 30 26 18 53 50 68 80 26 50 26 50 25 310-1 288-11 356-73 478l-30 57 45 0c53 0 97 17 142 54 25 22 32 35 32 65 0 42-27 78-63 85-45 9-256 13-367 6zm368-56c40-28 25-62-45-98-18-9-41-16-52-16-33 0-71-22-77-45-3-12 5-46 16-76 56-139 70-236 70-482 0-245-17-299-108-339-50-22-92-19-153 13-141 71-296 287-249 344 27 32 58 17 165-80 156-140 181-148 221-68 16 32 19 61 19 193 0 128-5 184-30 324-36 204-41 211-141 221-119 13-170 50-129 95 21 24 46 26 280 28 158 2 194-1 213-14zM1642 1793c-50-20-60-150-37-498 11-173 16-322 12-414-7-163-1-185 57-220 66-41 381-68 478-40 116 32 129 153 22 204-31 15-75 20-209 26-93 4-171 8-172 8-1 1-2 9-2 19 1 9-2 168-5 352-6 363-20 516-51 550-17 19-62 26-93 13zm58-48c26-31 32-102 40-460 5-215 13-386 20-407 6-21 21-43 33-50 13-8 84-15 177-18 195-8 230-22 230-96 0-39-39-56-144-62-164-8-365 26-390 67-4 6-9 132-11 279-2 147-6 281-10 297-4 17-8 116-8 220-2 167 0 194 16 218 20 31 29 33 47 12z" fill="#000000" class="svgShape color000000-1 selectable"></path></g></svg></g></svg>